<svg width="18" height="24" viewBox="0 0 18 24" fill="none" xmlns="http://www.w3.org/2000/svg">
<path d="M17.1 6.85742C16.6032 6.85742 16.2 7.24142 16.2 7.71456V10.286C16.2 14.0677 12.9708 17.1431 9 17.1431C5.0292 17.1431 1.8 14.0677 1.8 10.286V7.71456C1.8 7.24142 1.3968 6.85742 0.9 6.85742C0.4032 6.85742 0 7.24142 0 7.71456V10.286C0 14.7174 3.564 18.3328 8.1 18.77V23.1431C8.1 23.6163 8.5032 24.0003 9 24.0003C9.4968 24.0003 9.9 23.6163 9.9 23.1431V18.77C14.436 18.3328 18 14.7191 18 10.286V7.71456C18 7.24142 17.5968 6.85742 17.1 6.85742Z" fill="#E6E6E6"/>
<path d="M9.00163 15.4286C11.9788 15.4286 14.4016 13.1211 14.4016 10.2857V5.14286C14.4016 2.30743 11.9788 0 9.00163 0C6.02442 0 3.60162 2.30743 3.60162 5.14286V10.2857C3.60162 13.1211 6.02442 15.4286 9.00163 15.4286Z" fill="#E6E6E6"/>
</svg>
