<svg width="32" height="44" viewBox="0 0 32 44" fill="none" xmlns="http://www.w3.org/2000/svg">
<path d="M30.4 12.5714C29.5168 12.5714 28.8 13.2754 28.8 14.1429V18.8572C28.8 25.7903 23.0592 31.4286 16 31.4286C8.94079 31.4286 3.19999 25.7903 3.19999 18.8572V14.1429C3.19999 13.2754 2.48319 12.5714 1.59999 12.5714C0.716792 12.5714 -7.62939e-06 13.2754 -7.62939e-06 14.1429V18.8572C-7.62939e-06 26.9814 6.33599 33.6097 14.4 34.4112V42.4286C14.4 43.296 15.1168 44 16 44C16.8832 44 17.6 43.296 17.6 42.4286V34.4112C25.664 33.6097 32 26.9846 32 18.8572V14.1429C32 13.2754 31.2832 12.5714 30.4 12.5714Z" fill="#F3F3F3"/>
<path d="M16 28.2857C21.2928 28.2857 25.6 24.0554 25.6 18.8571V9.42857C25.6 4.23029 21.2928 0 16 0C10.7072 0 6.40002 4.23029 6.40002 9.42857V18.8571C6.40002 24.0554 10.7072 28.2857 16 28.2857Z" fill="#F3F3F3"/>
</svg>
