<svg width="24" height="24" viewBox="0 0 24 24" fill="none" xmlns="http://www.w3.org/2000/svg">
<path d="M5.92105 22.4344C7.69737 23.4349 9.69079 23.9565 11.6842 24C11.7829 24 11.9013 24 12 24C14.0132 24 16.0066 23.5216 17.8224 22.5649C19.4801 21.6951 20.9803 20.3904 22.0857 18.7595C23.3487 16.8893 24 14.6498 24 12.3229C24 10.8443 24 9.3874 24 7.90876C24 6.29966 24 4.7123 24 3.1032C24 2.53784 24 1.97248 24 1.42887C24 0.406868 23.0726 -0.267215 22.2237 0.102444L17.7237 2.16818C17.4276 2.29865 17.0921 2.32039 16.7961 2.18993C15.3355 1.55933 13.7171 1.23316 12 1.23316C10.2829 1.23316 8.66447 1.58108 7.20395 2.18993C6.9079 2.32039 6.57237 2.29865 6.27632 2.16818L1.77632 0.167895C0.927632 -0.223508 0 0.47232 0 1.49432C0 2.25538 0 3.03818 0 3.79925C0 5.3866 0 6.97396 0 8.58306C0 9.93123 0 11.2577 0 12.6058C0 14.7585 0.631579 16.846 1.75658 18.5856C2.82237 20.2164 4.2829 21.5211 5.92105 22.4344ZM16.3816 12.3666C17.4671 12.3666 18.3553 13.3451 18.3553 14.5411C18.3553 15.737 17.4671 16.7156 16.3816 16.7156C15.2961 16.7156 14.4079 15.737 14.4079 14.5411C14.4079 13.3236 15.2961 12.3666 16.3816 12.3666ZM7.61842 12.3666C8.70395 12.3666 9.5921 13.3451 9.5921 14.5411C9.5921 15.737 8.70395 16.7156 7.61842 16.7156C6.53289 16.7156 5.64474 15.737 5.64474 14.5411C5.64474 13.3236 6.53289 12.3666 7.61842 12.3666Z" fill="#383838"/>
</svg>
